<?xml version="1.0" encoding="utf-8"?>
<!-- Svg Vector Icons : http://www.sfont.cn -->
<!DOCTYPE svg PUBLIC "-//W3C//DTD SVG 1.1//EN" "http://www.w3.org/Graphics/SVG/1.1/DTD/svg11.dtd">
<svg version="1.1" xmlns="http://www.w3.org/2000/svg" xmlns:xlink="http://www.w3.org/1999/xlink" x="0px" y="0px" viewBox="0 0 1000 1000" enable-background="new 0 0 1000 1000" xml:space="preserve">
<metadata> Svg Vector Icons : http://www.sfont.cn </metadata>
<g><path d="M162.1,701.3h347.4c3.8-20.3,11.4-39.3,20.3-57H162.1V701.3z M673.1,436.7H162.1v55.7h510.9L673.1,436.7L673.1,436.7z M67.1,871V96h699.8v416.6c20.3,1.3,39.3,5.1,57.1,11.4v-447c0-21.5-16.5-38-38-38H48c-21.6,0-38,16.5-38,38v813c0,20.3,16.5,38,38,38h523.6c-16.5-16.5-30.4-35.5-41.8-57H67.1z M673.1,227.7H162.1v57h510.9L673.1,227.7L673.1,227.7z M915.2,847c13.9-26.6,22.8-57,22.8-89.9c0-103.8-84.9-188.7-190.2-188.7c-104,0-188.9,84.8-188.9,188.7C559,862.2,643.9,947,747.9,947c52,0,98.9-21.5,133.1-54.5l68.5,68.4l40.6-40.5L915.2,847z M747.9,890c-72.3,0-131.8-59.5-131.8-133c0-72.2,59.6-131.7,131.8-131.7c73.5,0,133.1,59.5,133.1,131.7C881,830.5,821.4,890,747.9,890L747.9,890z"/></g>
</svg>