<?xml version="1.0" standalone="no"?><!DOCTYPE svg PUBLIC "-//W3C//DTD SVG 1.1//EN" "http://www.w3.org/Graphics/SVG/1.1/DTD/svg11.dtd"><svg class="icon" width="200px" height="200.00px" viewBox="0 0 1024 1024" version="1.1" xmlns="http://www.w3.org/2000/svg"><path fill="#ffffff" d="M900 276.6l-95.4 97-5.4 5.6-3.2 3.4c-2.2 1.6-4.8 2.4-7.8 2.4-3.2 0-6.2-1.2-8.6-3.2l-1.8-1.8-5.4-5.4-82.6-84.2-4.4-4.4-3.4-3.4c-2-3-3.2-6.8-3.2-10.6 0-3.4 1.2-6.4 3.2-8.8l1.4-1.6 5.2-5.2 95.8-97.4c-10.2-20.2-49.4-29.8-70.2-28.2-34.2 2.6-69.4 14-105.6 51-1.4 1.6-3 3.2-4.4 4.6C555 240 545.2 312 565.2 378c1.4 2.8 2.6 6.2 3.2 9.2 2.2 11-0.8 20.4-8 27l-75.8 72.8c-23.6-24-27-27.2-27-27.2-4-4-12-6.6-19-2.4l-11.8 7.2c-45.4-46.2-64.6-64.8-70.8-87.2-6.4-23.4-0.6-54.6 5.4-66.2 5-9.2 20.6-17.8 33.8-18.8l17.2 17.6c4 4 10.2 4 14.2 0l61.8-62.8c4-4 4-10.6 0-14.6l-99.8-101.4c-4-4-10.4-4-14.2 0l-61.8 62.8c-4 4-4 10.6 0 14.6l6.6 6.8c0 9.8-1.4 25-9.4 33.2-12.4 12.6-37-2-53 9.4-15.8 11.2-35.8 29.2-48.6 42-12.6 12.8-61 63.6-95.6 149.2-34.6 85.6-8 165 10.8 185.8 10 11 28.2 22.2 25 1.4-3.2-21-8.4-93.8 15.4-123.6 23.8-29.8 55.2-54.2 96-56.2 39.2-2 61.8 11.4 112.6 63l-5.6 10.4c-3.6 6.8-1.6 15.4 2.4 19.4 0 0 3 3.2 24.2 24.8l-194.4 186.4c-32.4 28.6-30.6 81-0.6 112 30.4 30.4 82.2 32.6 110.4-0.4l182.8-197.2c98.2 104.6 186.6 214.8 186.6 214.8 4 4 10.4 4 14.2 0l99.8-101.4c4-4 4-10.4 0-14.6 0 0-110.4-91.4-214-192.4l71-76.6c6.6-7.4 15.8-10.4 26.6-8.2 3 0.6 6.2 2 9 3.4 64.8 20.4 135.6 10.4 188-39.6 1.6-1.4 3-3 4.6-4.6 36.2-36.8 47.4-72.8 50-107.6C929.4 327 920.4 287.6 900 276.6z" /></svg>